<svg width="100" height="100" viewBox="0 0 100 100" fill="none" xmlns="http://www.w3.org/2000/svg">
<g clip-path="url(#clip0_2081_77)">
<g clip-path="url(#clip1_2081_77)">
<path d="M76.5625 0C89.5067 0 100 10.4933 100 23.4375V76.5625C100 89.5067 89.5067 100 76.5625 100H23.4375C10.4933 100 0 89.5067 0 76.5625V23.4375C0 10.4933 10.4933 0 23.4375 0H76.5625ZM47.6562 12.8906C27.1608 12.8908 10.5469 29.5058 10.5469 50C10.5469 56.7236 12.3359 63.0283 15.4619 68.4668C21.8655 79.6073 33.8849 87.1092 47.6562 87.1094L48.0703 87.1074C61.6385 86.9592 73.4594 79.5262 79.8086 68.5381L63.6816 59.1953L63.7588 59.0605C60.5896 64.6805 54.5672 68.4785 47.6562 68.4785C40.7873 68.4784 34.7994 64.7283 31.6143 59.168C30.067 56.4661 29.1778 53.3374 29.1777 50C29.1777 39.795 37.451 31.5217 47.6562 31.5215L47.8672 31.5225C54.5592 31.5973 60.3931 35.2333 63.5752 40.6211L79.7275 31.3213C73.293 20.2983 61.3398 12.8906 47.6562 12.8906ZM73.71 44.5869H68.4473V47.2188H73.71V52.4814H68.4473V55.1133H73.71V60.376H76.3418V55.1133H81.6055V60.376H84.2363V55.1133H89.5V52.4814H84.2363V47.2188H89.5V44.5869H84.2363V39.3232H81.6055V44.5869H76.3418V39.3232H73.71V44.5869ZM81.6055 52.4814H76.3418V47.2188H81.6055V52.4814Z" fill="#689D6A"/>
</g>
</g>
<defs>
<clipPath id="clip0_2081_77">
<rect width="100" height="100" fill="white"/>
</clipPath>
<clipPath id="clip1_2081_77">
<rect width="100" height="100" fill="white"/>
</clipPath>
</defs>
</svg>
