<svg width="50" height="50" viewBox="0 0 50 50" fill="none" xmlns="http://www.w3.org/2000/svg">
<path d="M47.1789 0.0489502L43.0197 45.0991L24.9998 49.9511L6.97959 45.0991L2.82129 0.0489502H47.1789ZM38.798 9.2092H24.9836H10.9245L11.5969 14.6494H24.9836H25.7355L24.9836 14.9624L12.0861 20.3341L12.5139 25.6518L24.9836 25.6922L31.667 25.7134L31.2392 32.8038L24.9835 34.5651V34.5595L24.9322 34.5738L18.8908 33.0487L18.5242 28.6473H18.5042H12.9005H12.8808L13.6143 37.1441L24.9837 40.5063V40.5002L25.0042 40.5063L36.3127 37.2053L37.7796 20.3341H24.9837H24.9521L24.9837 20.3204L38.2483 14.6494L38.798 9.2092Z" fill="#689D6A"/>
</svg>
