<svg width="50" height="50" viewBox="0 0 50 50" fill="none" xmlns="http://www.w3.org/2000/svg">
<path d="M4.96055 32.111C4.95898 32.5625 4.76836 32.9688 4.46367 33.2563H4.46211C4.14961 33.55 3.72773 33.7297 3.26367 33.7297C2.79961 33.7297 2.37617 33.5485 2.06211 33.2547L2.06367 33.2563C1.75898 32.9688 1.56836 32.5625 1.56836 32.1125C1.56836 31.6625 1.75898 31.2547 2.06523 30.9688C2.37773 30.675 2.80117 30.4953 3.26523 30.4953C3.7293 30.4953 4.15117 30.675 4.46523 30.9703L4.46367 30.9688C4.76836 31.2563 4.95898 31.6625 4.96055 32.1141V32.111ZM21.9543 33.4641H18.9121L10.9027 20.8266C10.7184 20.5422 10.548 20.2141 10.4121 19.8688L10.398 19.8313H10.3277C10.3918 20.4016 10.4277 21.0609 10.4277 21.7297C10.4277 21.8922 10.4262 22.0547 10.4215 22.2172V22.1938V33.4641H7.73242V16.2719H10.9715L18.7137 28.6125C19.0402 29.1219 19.2512 29.475 19.3449 29.6672H19.3918C19.3137 29.0828 19.2699 28.4078 19.2699 27.7219C19.2699 27.5922 19.2715 27.4641 19.2746 27.3344V27.3531V16.2703H21.9543V33.4641ZM35.0512 33.4641H25.6371V16.2719H34.6777V18.6938H28.4199V23.5641H34.1855V25.9734H28.4199V31.0578H35.0512V33.4641ZM48.4309 18.6938H43.6121V33.4656H40.8293V18.6938H36.0215V16.2719H48.4293L48.4309 18.6938Z" fill="#689D6A"/>
</svg>
