<svg width="50" height="50" viewBox="0 0 50 50" fill="none" xmlns="http://www.w3.org/2000/svg">
<path d="M16.062 14.7676C18.5857 13.4725 20.3125 10.8442 20.3125 7.8125C20.3125 3.49778 16.8147 0 12.5 0C8.18528 0 4.6875 3.49778 4.6875 7.8125C4.6875 11.0161 6.61578 13.7694 9.375 14.9749V35.025C6.61578 36.2306 4.6875 38.9837 4.6875 42.1875C4.6875 46.5022 8.18528 50 12.5 50C16.8147 50 20.3125 46.5022 20.3125 42.1875C20.3125 38.9837 18.3842 36.2306 15.625 35.025V23.1694L22.1431 29.6875H30.3376C31.5431 32.4469 34.2962 34.375 37.5 34.375C41.8147 34.375 45.3125 30.8772 45.3125 26.5625C45.3125 22.2478 41.8147 18.75 37.5 18.75C34.2962 18.75 31.5431 20.6783 30.3376 23.4375H24.7319L16.062 14.7676Z" fill="#689D6A"/>
</svg>
