<svg width="50" height="50" viewBox="0 0 50 50" fill="none" xmlns="http://www.w3.org/2000/svg">
<g clip-path="url(#clip0_2010_288)">
<path fill-rule="evenodd" clip-rule="evenodd" d="M0.0984774 0.0488281C0.0428134 0.0569336 0.0469149 0.124023 0.0509188 0.191211C0.0509188 16.7604 0.0509188 33.327 0.0509188 49.8957C16.5904 50.0065 33.3329 49.9115 49.9512 49.9432C49.9512 33.3114 49.9512 16.6805 49.9512 0.0488281C33.3342 0.0488281 16.7156 0.0488281 0.0984774 0.0488281ZM25.3802 44.1569C24.2257 45.3209 22.4038 46.0063 20.1625 46.0063C16.4865 46.0063 14.4455 44.2153 13.1426 41.7377C14.3967 40.9369 15.6784 40.1633 16.9848 39.414C17.5176 40.9044 19.3174 42.58 21.3484 41.5484C22.6358 40.8942 22.4872 38.9107 22.4872 36.758C22.4872 32.288 22.4872 27.1313 22.4872 23.0986C22.483 23.0314 22.479 22.9644 22.5342 22.9563C24.0681 22.9563 25.6019 22.9563 27.1354 22.9563C27.1354 26.5488 27.1354 30.6127 27.1354 34.4337C27.1354 38.5937 27.4327 42.0887 25.3802 44.1569ZM45.9664 40.031C45.7053 43.9259 42.5247 45.9941 38.235 46.0063C34.0297 46.0185 31.3381 44.1496 29.6966 41.2635C30.8768 40.4513 32.214 39.797 33.4442 39.0348C34.4286 40.5739 36.1333 42.0533 38.6619 41.8328C40.2371 41.6955 42.0658 40.4114 41.0334 38.4654C40.5328 37.5221 39.3229 37.0429 38.235 36.5685C34.7827 35.0622 30.7323 33.6807 31.1197 28.2685C31.2493 26.4604 32.0818 25.1898 33.1596 24.2845C34.2642 23.3567 35.7436 22.735 37.7132 22.6721C41.2903 22.5575 43.2526 24.1486 44.5911 26.3717C43.452 27.2399 42.1971 27.9936 40.9386 28.7429C40.5256 27.4738 38.532 26.2372 36.8593 26.9881C36.0987 27.3292 35.4152 28.3319 35.816 29.549C36.1734 30.6345 37.6313 31.2286 38.8041 31.7311C42.3541 33.2506 46.3214 34.7356 45.9664 40.031Z" fill="#689D6A"/>
</g>
<defs>
<clipPath id="clip0_2010_288">
<rect width="50" height="50" fill="white"/>
</clipPath>
</defs>
</svg>
