<svg width="50" height="50" viewBox="0 0 50 50" fill="none" xmlns="http://www.w3.org/2000/svg">
<g clip-path="url(#clip0_2010_286)">
<path d="M47.8983 22.8292V22.8396C47.8983 23.3208 48.0879 23.7583 48.3983 24.0792C48.7691 24.4229 49.2691 24.6333 49.8171 24.6333C49.8816 24.6333 49.9441 24.6312 50.0087 24.625H50.0004V26.8125C49.9462 26.8083 49.8816 26.8042 49.8171 26.8042C49.2691 26.8042 48.7691 27.0146 48.3962 27.3604L48.3983 27.3583C48.0879 27.6854 47.8983 28.1292 47.8983 28.6167V28.6479V28.6458C47.8983 29.1403 47.9372 29.8174 48.015 30.6771C48.0928 31.5368 48.1316 32.2792 48.1316 32.9042C48.1441 33.025 48.1525 33.1646 48.1525 33.3063C48.1525 34.1833 47.8671 34.9937 47.3816 35.65L47.39 35.6396C46.8191 36.1354 46.0671 36.4375 45.2462 36.4375C45.1337 36.4375 45.0233 36.4312 44.915 36.4208L44.9296 36.4229H43.3671V34.4729H43.8441V34.3938C43.89 34.3979 43.9421 34.4021 43.9962 34.4021C44.3587 34.4021 44.69 34.2646 44.94 34.0417L44.9379 34.0437C45.1421 33.7229 45.2629 33.3312 45.2629 32.9104C45.2629 32.8292 45.2587 32.7479 45.2483 32.6667V32.6771L45.0921 28.6146C45.0858 28.5396 45.0837 28.4521 45.0837 28.3646C45.0837 27.7229 45.2462 27.1208 45.5316 26.5938L45.5212 26.6125C45.8379 26.1562 46.3171 25.8292 46.8733 25.7167L46.8879 25.7146V25.5583C46.3254 25.4458 45.8483 25.1354 45.5254 24.7042L45.5212 24.6979C45.2441 24.1917 45.0796 23.5896 45.0796 22.95C45.0796 22.85 45.0837 22.75 45.0921 22.6521V22.6646L45.2483 18.6021C45.2566 18.5312 45.2608 18.4479 45.2608 18.3646C45.2608 17.95 45.1546 17.5604 44.9691 17.2229L44.9754 17.2354C44.7275 17.0083 44.3962 16.8708 44.0337 16.8708C43.9671 16.8708 43.9004 16.875 43.8358 16.8854H43.8441H43.3754V15.0146H44.9379C45.0337 15.0042 45.1441 15 45.2546 15C46.0754 15 46.8275 15.3021 47.4025 15.8L47.3983 15.7958C47.8754 16.4417 48.1608 17.2521 48.1608 18.1292C48.1608 18.2708 48.1525 18.4104 48.1379 18.5479L48.14 18.5313C48.14 19.1563 48.1011 19.8986 48.0233 20.7583C47.9455 21.6181 47.9046 22.3083 47.9004 22.8292H47.8983ZM39.615 25.3292C41.8566 26.0583 42.9775 27.309 42.9775 29.0812V29.1417C42.9775 30.2667 42.4608 31.2708 41.6504 31.9292L41.6441 31.9333C40.7129 32.6479 39.5296 33.0771 38.2483 33.0771C38.1233 33.0771 37.9983 33.0729 37.8754 33.0646H37.8921C37.0171 33.0438 36.1879 32.875 35.4212 32.5792L35.4712 32.5958C34.6275 32.3125 33.8983 31.8854 33.2775 31.3396L33.2837 31.3458L34.9233 28.925C35.7858 29.6583 36.8983 30.1208 38.1171 30.175H38.1275C39.1691 30.175 39.69 29.8368 39.69 29.1604C39.69 28.8479 39.4552 28.5354 38.9858 28.2229C38.5462 27.9917 38.0275 27.7792 37.49 27.6146L37.4254 27.5979L37.1129 27.4417C34.9768 26.6083 33.9087 25.4097 33.9087 23.8458C33.9087 23.8146 33.9066 23.7792 33.9066 23.7417C33.9066 22.6625 34.4066 21.7 35.19 21.0771L35.1962 21.0708C36.0671 20.4083 37.1712 20.0083 38.3671 20.0083C38.4608 20.0083 38.5546 20.0104 38.6483 20.0167H38.6358C40.2587 20.0625 41.7379 20.6438 42.9087 21.5896L42.8962 21.5792L41.2608 23.7625C40.5379 23.175 39.6191 22.8021 38.615 22.7479H38.6046C37.7157 22.7479 37.2712 23.0604 37.2712 23.6854C37.3004 24.0542 37.5108 24.3687 37.8129 24.5417L37.8191 24.5438C38.1796 24.7688 38.5941 24.9542 39.0337 25.0812L39.0691 25.0896C39.333 25.1924 39.5177 25.2701 39.6233 25.3229L39.615 25.3292ZM11.5608 29.9417H12.0296L12.4941 32.5979C11.9733 32.7979 11.3691 32.9125 10.74 32.9125C10.6983 32.9125 10.6546 32.9125 10.6129 32.9104H10.6191C8.37747 32.9104 7.25664 31.5035 7.25664 28.6896V16.9688H6.16081C6.11289 16.9625 6.05664 16.9583 5.99831 16.9583C5.65039 16.9583 5.33581 17.0958 5.10456 17.3208C4.92539 17.6479 4.81914 18.0375 4.81914 18.45C4.81914 18.5333 4.82331 18.6167 4.83164 18.6958V18.6854L4.91081 22.6729C4.91706 22.7604 4.92122 22.8625 4.92122 22.9667C4.92122 23.6146 4.76289 24.225 4.48372 24.7646L4.49414 24.7437C4.18372 25.1917 3.69831 25.5 3.13581 25.5625H3.12747V25.7188C3.69831 25.8333 4.17747 26.1604 4.48997 26.6104L4.49414 26.6167C4.77122 27.1229 4.93164 27.7271 4.93164 28.3667C4.93164 28.4542 4.92956 28.5417 4.92331 28.6271V28.6146C4.92331 29.1354 4.89692 29.8646 4.84414 30.8021V32.6771C4.83789 32.7458 4.83372 32.825 4.83372 32.9042C4.83372 33.3354 4.93789 33.7396 5.12331 34.0979L5.11706 34.0833C5.33997 34.3292 5.65872 34.4833 6.01706 34.4833C6.07122 34.4833 6.12539 34.4792 6.17956 34.4729H6.17331H6.64414V36.3479H5.07331C4.97956 36.3583 4.86914 36.3625 4.75872 36.3625C3.93581 36.3625 3.18372 36.0604 2.60664 35.5583L2.61081 35.5625C2.13372 34.9167 1.84831 34.1062 1.84831 33.2292C1.84831 33.0875 1.85664 32.9458 1.87122 32.8083L1.86914 32.825C1.86914 32.2 1.90803 31.4576 1.98581 30.5979C2.06359 29.7382 2.10247 29.0611 2.10247 28.5667C2.10247 28.5521 2.10247 28.5375 2.10247 28.5208C2.10247 28.05 1.91081 27.625 1.60247 27.3167C1.22539 27 0.735807 26.8083 0.200391 26.8083C0.129557 26.8083 0.0608073 26.8125 -0.00585938 26.8188H0.00247396V24.6313C0.0566406 24.6354 0.121224 24.6396 0.185807 24.6396C0.733724 24.6396 1.23372 24.4292 1.60664 24.0833L1.60456 24.0854C1.91497 23.7646 2.10456 23.3271 2.10456 22.8458C2.10456 22.8417 2.10456 22.8375 2.10456 22.8333C2.10456 22.3639 2.06567 21.6868 1.98789 20.8021C1.91011 19.9174 1.87122 19.1639 1.87122 18.5417C1.85872 18.4208 1.85039 18.2812 1.85039 18.1396C1.85039 17.2625 2.13581 16.4521 2.62122 15.7958L2.61289 15.8063C3.18372 15.3104 3.93581 15.0083 4.75664 15.0083C4.86914 15.0083 4.97956 15.0146 5.08789 15.025L5.07331 15.0229H10.9358V28.9354C10.9316 28.9688 10.9316 29.0063 10.9316 29.0458C10.9316 29.2958 11.0066 29.5271 11.1337 29.7208L11.1316 29.7167C11.2316 29.8479 11.3858 29.9333 11.5608 29.9375V29.9417ZM29.69 25.3292C31.9316 26.0583 33.0525 27.309 33.0525 29.0812V29.1417C33.0525 30.2667 32.5358 31.2708 31.7254 31.9292L31.7191 31.9333C30.7879 32.6479 29.6046 33.0771 28.3233 33.0771C28.1983 33.0771 28.0733 33.0729 27.9504 33.0646H27.9671C27.0754 33.0542 26.2275 32.8813 25.4441 32.5771L25.4941 32.5938C24.64 32.2896 23.9004 31.8646 23.2546 31.3333L23.2671 31.3438L24.9066 28.9229C25.7691 29.6563 26.8816 30.1187 28.1004 30.1729H28.1108C29.1525 30.1729 29.6733 29.8347 29.6733 29.1583C29.6733 28.8458 29.4386 28.5333 28.9691 28.2208C28.5296 27.9896 28.0108 27.7771 27.4733 27.6125L27.4087 27.5958L27.1733 27.4396C24.9844 26.6062 23.89 25.4076 23.89 23.8437C23.89 23.8167 23.8879 23.7875 23.8879 23.7562C23.8879 22.6625 24.4087 21.6917 25.215 21.075L25.2233 21.0687C26.1129 20.4062 27.2337 20.0083 28.4462 20.0083C28.5358 20.0083 28.6254 20.0104 28.7129 20.0146H28.7004C30.2983 20.0521 31.7546 20.6375 32.8921 21.5875L32.8816 21.5792L31.2441 23.7646C30.5421 23.1875 29.6525 22.8146 28.6796 22.75H28.665C27.7275 22.75 27.2587 23.0625 27.2587 23.6875C27.2608 24.0646 27.4816 24.3917 27.8004 24.5458L27.8066 24.5479C28.19 24.7792 28.6337 24.9667 29.1046 25.0875L29.14 25.0958C29.3983 25.1986 29.5796 25.2764 29.6837 25.3292H29.69ZM17.5775 19.9375C17.6546 19.9333 17.7462 19.9313 17.8358 19.9313C19.2816 19.9313 20.5775 20.5833 21.44 21.6104L21.4462 21.6167C22.3025 22.7104 22.8171 24.1042 22.8171 25.6187C22.8171 25.7083 22.815 25.8 22.8108 25.8896V25.8771C22.8046 26.3792 22.7483 26.8646 22.6462 27.3313L22.6546 27.2833V27.3625H15.2337C15.3046 28.1708 15.6941 28.875 16.2733 29.3583L16.2775 29.3625C16.7796 29.7812 17.4296 30.0354 18.14 30.0354C18.2462 30.0354 18.3525 30.0292 18.4566 30.0188L18.4441 30.0208C19.4566 29.9979 20.3962 29.7104 21.2046 29.225L21.1796 29.2396L22.3462 31.4271C21.1316 32.3042 19.6129 32.8313 17.9691 32.8333C17.8983 32.8354 17.8171 32.8375 17.7337 32.8375C16.09 32.8375 14.6004 32.1792 13.5129 31.1146C12.4212 29.9667 11.7504 28.4125 11.7504 26.7C11.7504 26.6167 11.7525 26.5354 11.7546 26.4542V26.4667C11.7483 26.3542 11.7441 26.2208 11.7441 26.0875C11.7441 24.4021 12.4025 22.8708 13.4775 21.7354L13.4754 21.7375C14.4962 20.6292 15.9546 19.9375 17.5733 19.9375H17.5837H17.5775ZM15.2337 25.0958H19.6879C19.6879 23.4819 18.9844 22.675 17.5775 22.675C16.9837 22.675 16.4462 22.9146 16.0546 23.3C15.5941 23.7688 15.2921 24.3917 15.2337 25.0854V25.0958Z" fill="#689D6A"/>
</g>
<defs>
<clipPath id="clip0_2010_286">
<rect width="50" height="50" fill="white"/>
</clipPath>
</defs>
</svg>
