<svg width="50" height="50" viewBox="0 0 50 50" fill="none" xmlns="http://www.w3.org/2000/svg">
<g clip-path="url(#clip0_2010_275)">
<path d="M23.813 0.319269C24.5465 -0.106423 25.4535 -0.106423 26.187 0.319269L45.7063 11.6474C46.43 12.0674 46.875 12.8383 46.875 13.6719V36.3281C46.875 37.1619 46.43 37.9325 45.7063 38.3525L26.187 49.6806C25.4535 50.1066 24.5465 50.1066 23.813 49.6806L4.29375 38.3525C3.57003 37.9325 3.125 37.1619 3.125 36.3281V13.6719C3.125 12.8383 3.57003 12.0674 4.29375 11.6474L23.813 0.319269ZM7.83653 15.0181V34.9819L25 44.9428L42.1634 34.9819V15.0181L25 5.05713L7.83653 15.0181ZM15.5728 14.2409C16.4531 13.8781 17.4664 14.0787 18.1401 14.749L31.3944 27.9354V16.4062C31.3944 15.1118 32.4491 14.0625 33.75 14.0625C35.0509 14.0625 36.1056 15.1118 36.1056 16.4062V33.5938C36.1056 34.5416 35.5319 35.3962 34.6516 35.7591C33.7712 36.1219 32.7578 35.9212 32.0841 35.2509L18.8301 22.0646V33.5938C18.8301 34.8881 17.7754 35.9375 16.4743 35.9375C15.1733 35.9375 14.1186 34.8881 14.1186 33.5938V16.4062C14.1186 15.4583 14.6926 14.6037 15.5728 14.2409Z" fill="#689D6A"/>
</g>
<defs>
<clipPath id="clip0_2010_275">
<rect width="50" height="50" fill="white"/>
</clipPath>
</defs>
</svg>
