<svg width="50" height="50" viewBox="0 0 50 50" fill="none" xmlns="http://www.w3.org/2000/svg">
<path d="M41.0888 42.2359L41.1372 42.1375C41.1857 42.064 41.2185 41.9828 41.2513 41.8937V41.8859C41.406 41.4797 41.4388 41.0484 41.3654 40.6156V40.6312C41.2841 40.175 41.1216 39.7359 40.8763 39.3375L40.8919 39.3531L29.8076 19.8625L28.1154 16.9078L15.3716 39.3531C15.1513 39.7437 15.0138 40.1672 14.9404 40.6062V40.6312C14.8513 41.1359 14.9075 41.6484 15.1107 42.1203L15.1029 42.1047C15.1279 42.1781 15.1685 42.2437 15.2091 42.3156L15.2013 42.3078C15.5357 42.8781 16.2435 43.5609 17.806 43.5609H38.4279C38.7529 43.5609 40.356 43.4953 41.0966 42.2343L41.0888 42.2359ZM28.1169 22.8265L38.2404 40.6328H18.0013L28.1169 22.8265ZM49.4701 39.3562L34.8544 13.6078C34.6997 13.3312 33.8622 11.964 32.3888 11.964C31.7294 11.964 30.7857 12.2484 30.0122 13.6L28.1247 16.9125L29.8013 19.875L32.406 15.2609L46.8669 40.6437H41.3654C41.4388 41.0672 41.3982 41.4984 41.2513 41.9047V41.889C41.2185 41.9781 41.1857 42.0687 41.1372 42.15V42.1422L41.0888 42.2406C40.3482 43.5015 38.7529 43.5672 38.4435 43.5672H47.045C47.3622 43.5672 48.9497 43.5015 49.6904 42.2406C50.0247 41.6625 50.2513 40.7031 49.4701 39.3593V39.3562ZM15.2185 42.3093C15.1857 42.2437 15.1529 42.1797 15.1201 42.114V42.1062C14.9169 41.6343 14.8513 41.1218 14.9404 40.6172V40.6312L3.12317 40.6328L20.6857 9.73279L26.4466 19.864L28.1232 16.9093L23.0935 8.05466C22.9544 7.8031 22.1091 6.43591 20.6435 6.43591C19.9841 6.43591 19.0326 6.72029 18.2669 8.07966L0.477862 39.3547C0.323175 39.6234 -0.409638 41.039 0.323175 42.3C0.65755 42.8781 1.36536 43.5531 2.92786 43.5531H17.82C16.2732 43.5531 15.5497 42.8859 15.2154 42.3L15.2185 42.3093Z" fill="#689D6A"/>
</svg>
