<svg width="50" height="50" viewBox="0 0 50 50" fill="none" xmlns="http://www.w3.org/2000/svg">
<path d="M37.9609 15.5141C37.9453 15.7563 37.8328 15.9703 37.6625 16.1188L37.6609 16.1203C37.4563 16.3438 37.1828 16.5 36.8734 16.5547L36.8656 16.5563C36.8219 16.5625 36.7703 16.5672 36.7188 16.5672C36.7172 16.5672 36.7141 16.5672 36.7125 16.5672C36.225 16.5672 35.8063 16.2719 35.6281 15.8484L35.625 15.8406C35.5781 15.4953 36.1406 15.2344 36.7203 15.1531C37.3 15.0719 37.9141 15.1703 37.9609 15.5141ZM22.4766 16.3172C22.2875 16.8031 21.8234 17.1422 21.2797 17.1422C21.2734 17.1422 21.2687 17.1422 21.2625 17.1422H21.2641C21.2078 17.1422 21.1547 17.1375 21.1 17.1313H21.1063C20.6984 17.0578 20.3516 16.8328 20.1219 16.5188L20.1188 16.5141C19.9906 16.3672 19.9125 16.1719 19.9125 15.9609V15.9594C19.9313 15.8391 19.9984 15.7359 20.0922 15.6703L20.0938 15.6688C20.3312 15.5375 20.6156 15.4609 20.9187 15.4609C21.0484 15.4609 21.175 15.475 21.2969 15.5016L21.2859 15.5C21.9031 15.5859 22.5406 15.8781 22.4797 16.3172H22.4766ZM39.6922 28.2594L39.525 28.05L39.4563 27.9641C40.1703 26.6422 40.5891 25.0688 40.5891 23.4C40.5891 22.6375 40.5016 21.8969 40.3359 21.1844L40.3484 21.25C40.2391 20.5422 40.175 19.725 40.175 18.8938C40.175 18.8828 40.175 18.8719 40.175 18.8609C40.2109 18.0781 40.2938 17.3469 40.4219 16.6297L40.4062 16.7328C40.5453 16.0078 40.625 15.1734 40.625 14.3203C40.625 14.2406 40.625 14.1625 40.6234 14.0844V14.0969C40.6422 14.0203 40.6531 13.9344 40.6531 13.8438C40.6531 13.8016 40.65 13.7609 40.6469 13.7203V13.725C40.0219 11.2563 38.8484 9.1172 37.2594 7.36095L37.2703 7.37345C35.8469 5.7047 34.0969 4.35939 32.1141 3.43126L32.0203 3.3922C33.1078 3.15939 34.3578 3.02657 35.6391 3.02657C35.7563 3.02657 35.8734 3.02814 35.9906 3.0297H35.9734C36.0438 3.02814 36.125 3.02657 36.2078 3.02657C39.9234 3.02657 43.2328 4.75939 45.3734 7.46095L45.3922 7.48595C45.4359 7.5422 45.4797 7.60626 45.5172 7.67345L45.5219 7.68126C46.9344 10.3281 44.9828 19.9344 39.6906 28.2625L39.6922 28.2594ZM39.2453 14.5656C39.2203 15.2766 39.1453 15.95 39.0266 16.6078L39.0391 16.5219C38.9172 17.186 38.8297 17.9766 38.7938 18.7797L38.7922 18.8188C38.7922 18.8453 38.7922 18.875 38.7922 18.9063C38.7922 19.7922 38.8578 20.6625 38.9859 21.5125L38.9734 21.4172C39.1063 22.0063 39.1828 22.6813 39.1828 23.3766C39.1828 24.5688 38.9578 25.7094 38.5469 26.7547L38.5688 26.6922C38.45 26.4875 38.3266 26.2406 38.2188 25.9844L38.2016 25.9391C38.0984 25.6906 37.875 25.2891 37.5672 24.736C36.3656 22.5797 33.55 17.5313 34.9906 15.4719C35.7313 14.4125 37.6094 14.3672 39.2437 14.5672L39.2453 14.5656ZM38.1344 32.6672C38.0547 31.0438 38.6594 30.8734 39.3 30.6938C39.3885 30.6698 39.4766 30.6432 39.5641 30.6141C39.6422 30.6828 39.7281 30.75 39.8172 30.8094L39.825 30.8141C40.7938 31.2406 41.9219 31.4875 43.1094 31.4875C44.0344 31.4875 44.9234 31.3375 45.7547 31.0594L45.6953 31.0766C45.1578 31.5344 44.5453 31.9266 43.8828 32.2297L43.8344 32.25C42.8281 32.6625 41.6609 32.9203 40.4391 32.9594H40.4234C40.2375 32.9875 40.0234 33.0047 39.8063 33.0047C39.2031 33.0047 38.6281 32.8797 38.1078 32.6547L38.1359 32.6656L38.1344 32.6672ZM36.3953 35.8328C36.3625 36.1781 36.325 36.5672 36.275 36.9969L35.9906 37.8531C35.9688 37.9156 35.9562 37.9875 35.9547 38.0625C35.9562 38.1047 35.9562 38.1531 35.9562 38.2016C35.9562 38.7563 35.8734 39.2938 35.7203 39.7985L35.7297 39.7594C35.5484 40.3672 35.4234 41.0719 35.3812 41.7984L35.3797 41.8234C35.2984 44.4547 33.2625 46.5844 30.6797 46.8141L30.6594 46.8156C27.7 47.45 27.175 45.8453 26.7125 44.4297C26.6656 44.2818 26.6156 44.1344 26.5625 43.9875C26.3125 42.9688 26.1687 41.7985 26.1687 40.5953C26.1687 40.0328 26.2 39.4781 26.2609 38.9313L26.2547 38.9984C26.2641 38.7985 26.2688 38.5625 26.2688 38.3266C26.2688 36.7234 26.0281 35.1766 25.5797 33.7203L25.6094 33.8313C25.6177 33.2583 25.6302 32.6781 25.6469 32.0906C25.6469 32.0859 25.6469 32.0781 25.6469 32.0719C25.6469 32 25.6359 31.9313 25.6156 31.8656L25.6172 31.8703C25.5953 31.7141 25.5656 31.5766 25.5266 31.4438L25.5312 31.4641C25.3109 30.65 24.7563 29.9938 24.025 29.6453L24.0078 29.6375C23.7328 29.5 23.4078 29.4188 23.0625 29.4188C22.9 29.4188 22.7422 29.4359 22.5906 29.4703L22.6047 29.4672C22.8047 28.7328 23.0109 28.1328 23.2484 27.5485L23.2078 27.6625L23.3109 27.386C23.4266 27.0735 23.5719 26.75 23.7266 26.4078C24.5797 24.6516 25.0781 22.5875 25.0781 20.4063C25.0781 18.9406 24.8531 17.5281 24.4359 16.2L24.4625 16.2984C24.1766 14.5672 22.6891 13.2625 20.8984 13.2625C20.6172 13.2625 20.3422 13.2953 20.0797 13.3563L20.1047 13.3516C18.8609 13.5141 17.7359 13.8797 16.7125 14.4172L16.7672 14.3906C16.638 14.4563 16.5104 14.524 16.3844 14.5938C16.5266 11.2391 17.7844 8.20314 19.7922 5.82032L19.7734 5.8422C19.9578 5.65626 20.1516 5.4797 20.3516 5.31407L20.3656 5.30314C20.4734 5.28126 20.5688 5.23751 20.65 5.17657L20.6484 5.17814C22.0438 4.15626 23.7953 3.5422 25.6906 3.5422C25.8422 3.5422 25.9922 3.54532 26.1406 3.55314L26.1203 3.55157C26.9422 3.56407 27.7359 3.62032 28.5172 3.72032L28.4125 3.70939C31.6047 4.32345 34.3297 5.99532 36.275 8.33907L36.2922 8.36095C37.4609 9.71876 38.4078 11.3094 39.0516 13.0453L39.0859 13.1531C38.6844 13.0453 38.2234 12.9828 37.7484 12.9828C36.2125 12.9828 34.8297 13.6328 33.8578 14.6719L33.8547 14.675C31.9172 17.4453 34.9156 22.8234 36.3563 25.4078C36.6203 25.8813 36.8484 26.2906 36.9203 26.4641C37.3266 27.4031 37.8375 28.2109 38.4516 28.9281L38.4406 28.9156C38.5766 29.086 38.7078 29.25 38.8094 29.3938C38.0266 29.6188 36.6203 30.1406 36.7484 32.7469C36.725 33.0516 36.6656 33.6188 36.5859 34.3375C36.5016 34.7578 36.4328 35.2703 36.3937 35.7906L36.3906 35.8344L36.3953 35.8328ZM22.0172 26.9047L21.9141 27.1797C21.7 27.6922 21.4781 28.3438 21.2938 29.0109L21.2641 29.1375C19.8688 29.1172 18.6156 28.5203 17.7312 27.5734L17.7281 27.5703C16.7406 26.5281 16.1344 25.1172 16.1344 23.5641C16.1344 23.2547 16.1578 22.9516 16.2047 22.6547L16.2 22.6875C16.3516 21.5625 16.4391 20.2641 16.4391 18.9438C16.4391 18.1594 16.4078 17.3828 16.3484 16.6141L16.3547 16.7156C16.3453 16.5484 16.3359 16.4016 16.3313 16.2859C17.5891 15.3313 19.1812 14.7547 20.9078 14.7547C21.1141 14.7547 21.3172 14.7625 21.5188 14.7781L21.4922 14.7766C22.3578 14.9781 23.0094 15.6953 23.1125 16.5781L23.1141 16.5875C23.4859 17.725 23.7 19.0344 23.7 20.3922C23.7 22.3703 23.2453 24.2422 22.4359 25.9109L22.4688 25.8359C22.3047 26.2 22.15 26.5438 22.0172 26.9016V26.9047ZM17.9281 34.6922C17.6078 34.6109 17.3266 34.4922 17.0703 34.3375L17.0844 34.3453C17.3531 34.2313 17.6703 34.136 17.9984 34.075L18.0281 34.0703C20.5344 33.5547 20.9203 33.1906 21.7656 32.1172C21.9594 31.8719 22.1781 31.5922 22.4828 31.2531C22.5453 31.1828 22.5953 31.0984 22.625 31.0047L22.6266 31C22.9594 30.7047 23.1578 30.7859 23.4797 30.9188C23.8344 31.1141 24.0969 31.4438 24.1984 31.8359L24.2 31.8469C24.2359 31.9485 24.2578 32.0641 24.2578 32.186C24.2578 32.3813 24.2031 32.5641 24.1094 32.7188L24.1125 32.7141C23.1047 34.0922 21.4938 34.9781 19.6766 34.9781C19.0516 34.9781 18.45 34.8734 17.8891 34.6797L17.9281 34.6922ZM6.19844 24.7594C5.18125 21.6578 4.35313 17.9781 3.86406 14.1906L3.83125 13.8797C3.73594 13.3766 3.68281 12.7969 3.68281 12.2063C3.68281 9.38439 4.91562 6.85157 6.87187 5.1172L6.88125 5.10939C10.4672 2.57345 16.3313 4.05314 18.8078 4.8547L18.7891 4.87345C16.3906 7.79845 14.9359 11.5797 14.9359 15.6984C14.9359 15.8391 14.9375 15.9797 14.9406 16.1203V16.1C14.9406 16.2609 14.9531 16.4891 14.9719 16.8016C15.0234 17.4422 15.0531 18.1891 15.0531 18.9438C15.0531 20.1969 14.9719 21.4313 14.8125 22.6422L14.8281 22.5C14.7766 22.8219 14.7484 23.1938 14.7484 23.5719C14.7484 25.4953 15.5016 27.2438 16.7313 28.5359L16.7281 28.5328C16.8854 28.6974 17.0495 28.8521 17.2203 28.9969C16.5438 29.7219 15.0719 31.325 13.5062 33.2094C12.3984 34.5422 11.6328 34.2859 11.3812 34.2031C10.3109 33.6281 9.47187 32.736 8.97812 31.6547L8.96406 31.6203C7.89531 29.6641 6.95469 27.3891 6.26094 25.0078L6.2 24.7625L6.19844 24.7594ZM47.5703 30.3172C47.5406 30.2281 47.5031 30.1516 47.4578 30.0813L47.4609 30.0859C47.1891 29.5719 46.5297 29.4188 45.4937 29.6328C42.2656 30.2985 41.0156 29.8891 40.5625 29.5953C43.0891 25.7641 45.1219 21.3266 46.4234 16.5859L46.5 16.2594C47.0297 14.2078 48.0578 9.3797 46.7391 7.02032C46.6469 6.84532 46.5484 6.69532 46.4391 6.5547L46.4438 6.56095C44.0016 3.50626 40.275 1.5672 36.0953 1.5672C35.9766 1.5672 35.8578 1.56876 35.7406 1.57189H35.7578C35.6922 1.57032 35.6156 1.57032 35.5375 1.57032C33.4406 1.57032 31.4234 1.91407 29.5406 2.54689L29.6734 2.50782C29.3391 2.44532 29.0031 2.3922 28.6656 2.34845C27.9031 2.20314 27.0203 2.11251 26.1172 2.09845H26.1047C25.975 2.0922 25.8234 2.08907 25.6703 2.08907C23.6156 2.08907 21.7047 2.7047 20.1125 3.76251L20.15 3.73907C18.4766 3.11251 10.8 0.526574 6.04844 3.8922C3.72188 5.87657 2.25781 8.80939 2.25781 12.0859C2.25781 12.7188 2.3125 13.3391 2.41719 13.9422L2.40781 13.8781C2.93125 18.0938 3.78125 21.8875 4.95781 25.5359L4.83438 25.0922C5.60469 27.7734 6.55781 30.0938 7.72813 32.2797L7.63281 32.0859C8.30938 33.6234 9.47969 34.8422 10.9391 35.5625L10.9797 35.5813C11.2422 35.6578 11.5437 35.7031 11.8562 35.7031C13.0156 35.7031 14.0312 35.0922 14.6 34.1735L14.6078 34.1594C16.1719 32.2781 17.7125 30.5938 18.4047 29.85C19.1891 30.2859 20.1188 30.5547 21.1094 30.586H21.1187L21.1203 30.5938C20.9557 30.7896 20.7948 30.9886 20.6375 31.1906C19.975 32.0313 19.8375 32.2047 17.7078 32.6438C17.1016 32.7688 15.4922 33.1 15.4688 34.2281C15.4688 34.2344 15.4688 34.2406 15.4688 34.2485C15.4688 34.4781 15.5359 34.6922 15.6516 34.8719L15.6484 34.8672C16.1359 35.4844 16.8219 35.9266 17.6078 36.0984L17.6313 36.1031C18.2547 36.3063 18.9734 36.4235 19.7172 36.4235C21.4359 36.4235 23.0078 35.8016 24.2234 34.7703L24.2141 34.7781C24.1766 35.4313 24.1562 36.1969 24.1562 36.9672C24.1562 39.7063 24.4234 42.3844 24.9313 44.975L24.8891 44.7141C25.4859 46.8594 27.4141 48.4125 29.7078 48.4328H29.7109C30.2875 48.4281 30.8453 48.3609 31.3828 48.2391L31.3313 48.2484C34.3297 47.9813 36.6922 45.5844 36.9047 42.5938L36.9062 42.575C37.2 40.875 37.6906 36.9609 37.9578 34.5672C37.9703 34.4656 38.0109 34.375 38.0703 34.3L38.0688 34.3016C38.0703 34.3 38.2047 34.2094 38.9031 34.3609L38.9891 34.375L39.4844 34.4188L39.5141 34.4203C39.6625 34.4266 39.8375 34.4313 40.0125 34.4313C41.6125 34.4313 43.1406 34.1188 44.5359 33.55L44.4562 33.5781C45.7141 32.9953 47.9813 31.5625 47.5703 30.3172Z" fill="#689D6A"/>
</svg>
