<svg width="50" height="50" viewBox="0 0 50 50" fill="none" xmlns="http://www.w3.org/2000/svg">
<g clip-path="url(#clip0_2010_280)">
<path fill-rule="evenodd" clip-rule="evenodd" d="M50 0H0V50H50V0ZM20.2563 43.3333H16.0783V26.8147H10.0879V23.37H26.2467V26.8147H20.2563V43.3333ZM44.2977 37.3843C44.2977 41.341 41.2263 43.8453 36.246 43.8453C31.473 43.8453 28.457 41.5627 28.222 38.0207L28.208 37.7993H32.234L32.2477 37.9377C32.4 39.432 34.0187 40.442 36.3567 40.442C38.584 40.442 40.1197 39.3767 40.1197 37.841V37.827C40.1197 36.513 39.1373 35.7797 36.661 35.2677L34.558 34.839C30.4077 33.995 28.623 32.058 28.623 29.0283V29.0143C28.623 25.3067 31.805 22.858 36.232 22.858C40.8943 22.858 43.6337 25.3207 43.8963 28.6547L43.9103 28.8347H39.9813L39.9537 28.6687C39.7183 27.2437 38.335 26.2477 36.232 26.2477C34.1707 26.2613 32.801 27.202 32.801 28.6963V28.71C32.801 30.0107 33.7697 30.7853 36.1213 31.2697L38.238 31.6983C42.4577 32.57 44.2977 34.2577 44.2977 37.3707V37.3843Z" fill="#689D6A"/>
</g>
<defs>
<clipPath id="clip0_2010_280">
<rect width="50" height="50" fill="white"/>
</clipPath>
</defs>
</svg>
