<svg width="50" height="50" viewBox="0 0 50 50" fill="none" xmlns="http://www.w3.org/2000/svg">
<path d="M36.7272 3.1251H32.5522C31.7547 3.1251 31.0118 3.53063 30.5806 4.20144L25 12.8823L19.4194 4.20144C18.9882 3.53063 18.2454 3.1251 17.4479 3.1251H2.34375C1.5034 3.1251 0.727372 3.575 0.309812 4.30428C-0.107747 5.03353 -0.102921 5.93053 0.322463 6.65525L22.9787 45.2547C23.3995 45.9719 24.1687 46.4122 25 46.4122C25.8313 46.4122 26.6005 45.9719 27.0213 45.2547L49.6775 6.65525C50.1028 5.93053 50.1078 5.03353 49.6903 4.30428C49.2725 3.575 48.4966 3.1251 47.6562 3.1251H36.7712C36.7566 3.12497 36.7419 3.12497 36.7272 3.1251ZM11.9062 7.8126L25 30.2592L38.0938 7.8126H43.5628L25 39.4384L6.43709 7.8126H11.9062Z" fill="#689D6A"/>
</svg>
