<svg width="25" height="26" viewBox="0 0 25 26" fill="none" xmlns="http://www.w3.org/2000/svg">
<path d="M12.44 25.968C9.98667 25.968 7.928 25.5627 6.264 24.752C4.6 23.9413 3.30933 22.7893 2.392 21.296C1.496 19.8027 0.952 18.0533 0.76 16.048C0.738667 15.7493 0.717333 15.3547 0.696 14.864C0.674667 14.352 0.664 13.8187 0.664 13.264C0.664 12.7093 0.674667 12.1973 0.696 11.728C0.717333 11.2373 0.738667 10.8533 0.76 10.576C0.888 9.168 1.22933 7.856 1.784 6.64C2.33867 5.40267 3.08533 4.336 4.024 3.44C4.984 2.544 6.136 1.84 7.48 1.328C8.84533 0.815999 10.4133 0.559999 12.184 0.559999C14.2533 0.559999 16.0133 0.805333 17.464 1.296C18.936 1.76533 20.1413 2.448 21.08 3.344C22.04 4.21867 22.7547 5.27467 23.224 6.512C23.7147 7.728 24.0133 9.08267 24.12 10.576C24.1627 11.0667 24.184 11.5787 24.184 12.112C24.184 12.6453 24.1733 13.1467 24.152 13.616C24.152 14.064 24.1413 14.416 24.12 14.672C24.056 15.7173 23.8107 16.6027 23.384 17.328C22.9787 18.032 22.4347 18.5653 21.752 18.928C21.0907 19.2907 20.3333 19.472 19.48 19.472C18.776 19.472 18.168 19.3653 17.656 19.152C17.1653 18.9387 16.76 18.704 16.44 18.448C16.1413 18.1707 15.9173 17.936 15.768 17.744C15.5973 18.0213 15.3627 18.32 15.064 18.64C14.7653 18.96 14.3387 19.2373 13.784 19.472C13.2507 19.6853 12.5467 19.792 11.672 19.792C10.072 19.792 8.80267 19.216 7.864 18.064C6.94667 16.912 6.488 15.312 6.488 13.264C6.488 11.216 6.94667 9.616 7.864 8.464C8.78133 7.29067 10.0293 6.704 11.608 6.704C12.4613 6.704 13.1333 6.85333 13.624 7.152C14.136 7.45067 14.5413 7.80267 14.84 8.208V7.728C14.84 7.51467 14.9147 7.33333 15.064 7.184C15.2133 7.03467 15.3947 6.96 15.608 6.96H16.888C17.1013 6.96 17.2827 7.03467 17.432 7.184C17.5813 7.33333 17.656 7.51467 17.656 7.728V14.384C17.656 15.1947 17.8267 15.8027 18.168 16.208C18.5093 16.592 18.9467 16.784 19.48 16.784C19.992 16.784 20.376 16.656 20.632 16.4C20.9093 16.1227 21.0907 15.792 21.176 15.408C21.2827 15.024 21.336 14.6827 21.336 14.384C21.3573 14 21.368 13.4773 21.368 12.816C21.3893 12.1547 21.3787 11.4613 21.336 10.736C21.2293 9.072 20.856 7.68533 20.216 6.576C19.5973 5.46667 18.6373 4.63467 17.336 4.08C16.056 3.504 14.3387 3.216 12.184 3.216C10.392 3.216 8.888 3.52533 7.672 4.144C6.456 4.76267 5.50667 5.63733 4.824 6.768C4.16267 7.87733 3.736 9.2 3.544 10.736C3.50133 11.0987 3.46933 11.6107 3.448 12.272C3.448 12.9333 3.448 13.6053 3.448 14.288C3.46933 14.9493 3.50133 15.4827 3.544 15.888C3.8 18.2347 4.65333 20.0587 6.104 21.36C7.576 22.6613 9.688 23.312 12.44 23.312C13.8693 23.312 15 23.2053 15.832 22.992C16.6853 22.7787 17.3573 22.5227 17.848 22.224C18.3387 21.9467 18.744 21.68 19.064 21.424C19.2133 21.3173 19.352 21.2213 19.48 21.136C19.6293 21.0507 19.8 21.008 19.992 21.008H21.752C21.9653 21.008 22.1467 21.0827 22.296 21.232C22.4453 21.36 22.52 21.5307 22.52 21.744C22.52 21.8293 22.4987 21.9147 22.456 22C22.4133 22.064 22.3707 22.1387 22.328 22.224C21.752 22.864 21.0267 23.472 20.152 24.048C19.2773 24.624 18.2107 25.0827 16.952 25.424C15.6933 25.7867 14.1893 25.968 12.44 25.968ZM12.056 17.104C13.0587 17.104 13.7733 16.7733 14.2 16.112C14.6267 15.4507 14.84 14.5013 14.84 13.264C14.84 12.0267 14.6267 11.0773 14.2 10.416C13.7733 9.73333 13.0587 9.392 12.056 9.392C11.096 9.392 10.392 9.73333 9.944 10.416C9.496 11.0773 9.272 12.0267 9.272 13.264C9.272 14.0107 9.368 14.6827 9.56 15.28C9.77333 15.856 10.0827 16.304 10.488 16.624C10.8933 16.944 11.416 17.104 12.056 17.104Z" fill="#1D2021"/>
</svg>
