<svg width="30" height="28" viewBox="0 0 30 28" fill="none" xmlns="http://www.w3.org/2000/svg">
<path d="M0.974185 27.702H4.87423C5.41229 27.702 5.84842 27.2658 5.84842 26.7278V9.68076C5.84842 9.14265 5.41229 8.70657 4.87423 8.70657H0.974185C0.436077 8.70657 0 9.14265 0 9.68076V26.7278C0 27.2658 0.436077 27.702 0.974185 27.702Z" fill="#1D2021"/>
<path d="M0.974185 5.70961H4.87423C5.41229 5.70961 5.84842 5.27348 5.84842 4.73542V1.27216C5.84842 0.734104 5.41229 0.297974 4.87423 0.297974H0.974185C0.436077 0.297974 0 0.734104 0 1.27216V4.73542C0 5.27348 0.436077 5.70961 0.974185 5.70961Z" fill="#1D2021"/>
<path d="M28.5324 10.6838C27.9843 9.96243 27.1762 9.36918 26.1077 8.90418C25.0392 8.4395 23.8597 8.207 22.5693 8.207C19.9497 8.207 17.73 9.20675 15.9102 11.2066C15.5481 11.6045 15.2848 11.5175 15.2848 10.9794V9.68076C15.2848 9.14265 14.8486 8.70658 14.3106 8.70658H10.8267C10.2886 8.70658 9.85254 9.14265 9.85254 9.68076V26.7278C9.85254 27.2658 10.2887 27.702 10.8267 27.702H14.7268C15.2649 27.702 15.701 27.2658 15.701 26.7278V20.7993C15.701 18.3295 15.8501 16.6365 16.1484 15.7208C16.4465 14.8051 16.9983 14.0697 17.803 13.5147C18.6079 12.9597 19.5166 12.682 20.5297 12.682C21.3205 12.682 21.997 12.8763 22.5591 13.2649C23.121 13.6535 23.5269 14.1979 23.7767 14.8988C24.0266 15.5995 24.1514 17.1431 24.1514 19.5298V26.7277C24.1514 27.2658 24.5875 27.702 25.1255 27.702H29.0256C29.5636 27.702 29.9997 27.2658 29.9997 26.7277V17.0737C29.9997 15.3671 29.8921 14.0558 29.6773 13.1401C29.4624 12.2243 29.0807 11.4056 28.5324 10.6838Z" fill="#1D2021"/>
</svg>
