<svg width="48" height="50" viewBox="0 0 48 50" fill="none" xmlns="http://www.w3.org/2000/svg">
<path d="M24.0004 12.3209C17.0091 12.3209 11.3213 18.0086 11.3213 24.9999C11.3213 31.9912 17.0091 37.679 24.0004 37.679C30.9917 37.679 36.6795 31.9912 36.6795 24.9999C36.6795 18.0087 30.9917 12.3209 24.0004 12.3209Z" fill="#FBF1C7"/>
<path d="M42.8895 25L47.5325 18.7604C47.8499 18.334 47.9408 17.7801 47.7766 17.2746C47.6122 16.769 47.2132 16.3744 46.7058 16.2159L39.282 13.8971L39.3706 6.12C39.3768 5.58843 39.1248 5.08692 38.6948 4.77445C38.2646 4.46197 37.7098 4.37724 37.2062 4.54736L29.8373 7.03501L25.3379 0.691201C25.0304 0.257588 24.5318 0 24.0002 0C23.4687 0 22.9701 0.257588 22.6625 0.691201L18.1631 7.03512L10.794 4.54747C10.2903 4.37746 9.73549 4.46208 9.30548 4.77456C8.87547 5.08703 8.62346 5.58854 8.62959 6.12011L8.71836 13.8972L1.29457 16.216C0.787157 16.3745 0.388093 16.7691 0.223875 17.2747C0.0595481 17.7802 0.150513 18.334 0.467905 18.7605L5.11093 25.0001L0.467905 31.2397C0.150513 31.6661 0.0596574 32.22 0.223875 32.7256C0.388093 33.2311 0.787266 33.6257 1.29457 33.7842L8.71836 36.1029L8.62959 43.88C8.62346 44.4116 8.87547 44.9131 9.30548 45.2256C9.73559 45.5379 10.2902 45.6227 10.794 45.4526L18.1631 42.965L22.6625 49.3089C22.9701 49.7425 23.4687 50.0001 24.0002 50.0001C24.5318 50.0001 25.0304 49.7425 25.3379 49.3089L29.8374 42.965L37.2063 45.4526C37.7099 45.6227 38.2647 45.538 38.6949 45.2256C39.1249 44.9131 39.3769 44.4116 39.3708 43.8801L39.2821 36.1029L46.7059 33.7842C47.2133 33.6257 47.6124 33.2311 47.7767 32.7256C47.9409 32.22 47.85 31.6662 47.5327 31.2397L42.8895 25ZM24.0002 40.959C15.2004 40.959 8.04116 33.7997 8.04116 24.9999C8.04116 16.2 15.2004 9.04093 24.0002 9.04093C32.8001 9.04093 39.9593 16.2 39.9593 24.9999C39.9593 33.7997 32.8001 40.959 24.0002 40.959Z" fill="#FBF1C7"/>
</svg>
