<svg width="28" height="26" viewBox="0 0 28 26" fill="none" xmlns="http://www.w3.org/2000/svg">
<path fill-rule="evenodd" clip-rule="evenodd" d="M27.8896 3.61812C28.287 1.6809 26.3843 0.0710411 24.5396 0.783754L1.92815 9.52002C-0.131831 10.3159 -0.223618 13.1965 1.7815 14.1219L6.70565 16.3946L9.04813 24.5933C9.16981 25.0191 9.50775 25.3489 9.93649 25.46C10.3652 25.571 10.8207 25.447 11.1339 25.1338L14.7423 21.5254L19.7969 25.3164C21.2641 26.4168 23.3774 25.6153 23.7459 23.8186L27.8896 3.61812ZM2.82915 11.852L25.4406 3.11575L21.2969 23.3164L15.375 18.8749C14.8774 18.5016 14.181 18.5511 13.7411 18.991L12.1956 20.5365L12.66 17.9826L21.7589 8.88379C22.2018 8.44098 22.2485 7.73883 21.8684 7.24117C21.4883 6.74349 20.7986 6.6039 20.2549 6.9146L7.68907 14.095L2.82915 11.852ZM9.22121 16.0989L9.97918 18.7519L10.2702 17.1513C10.3157 16.9011 10.4364 16.6708 10.6162 16.491L13.391 13.7163L9.22121 16.0989Z" fill="#1D2021"/>
</svg>
